<?xml version="1.0" encoding="utf-8"?>
<!-- Generator: Adobe Illustrator 21.0.0, SVG Export Plug-In . SVG Version: 6.00 Build 0)  -->
<svg version="1.1" id="Слой_1" xmlns="http://www.w3.org/2000/svg" xmlns:xlink="http://www.w3.org/1999/xlink" x="0px" y="0px"
	 viewBox="0 0 191 38" style="enable-background:new 0 0 191 38;" xml:space="preserve">
<g>
	<path style="fill:#FDC305;" d="M6.1,20.9l0.1-2.3c6.7-0.9,13.4-1.4,20.2-1.3c0,0.6,0,1.2-0.1,1.8c0,0,2.9-1.3,6-1.8
		C29.9,11,23.8,6.5,16.7,6.5c-8.3,0-15.2,6.1-16.5,14.1C2.4,20.7,6.1,20.9,6.1,20.9z"/>
	<path style="fill:#FDC305;" d="M27.2,24.4c-1.2,1.3-1.4,1.2-1.4,3.5c0,0.9,0,4.9,0,9.2c4.5-3,7.4-8.1,7.4-13.9
		c0-1.1-0.1-2.1-0.3-3.1C31.2,21.2,28.2,23.3,27.2,24.4z"/>
	<path style="fill:#FDC305;" d="M6.4,25.9c0,0-3.8-1.4-5.2-1.8C0.8,24,0.4,23.9,0,23.8c0.2,6,3.7,11.3,8.7,14L6.4,25.9z"/>
</g>
<path style="fill:#F06351;" d="M26.3,17.3c0.1-8.5-1.4-16.5-1.4-16.5S24.7-0.4,24,0.6c-0.7,1.1-1.2,3.9-1.2,3.9
	C15.4,4.1,10,4.8,10,4.8C9.2,2.2,7.9,1,7.2,1.2C6.5,1.5,6.5,4.6,6.5,4.6L6.1,18.7C12.8,17.7,19.6,17.3,26.3,17.3z"/>
<path d="M12.4,14.2c0-0.1,1,0.7,1.4,0.9s0.6,0.4,0.6,0.6c0,0.2-0.3,0.3-0.6,0.3s-0.9-0.1-1-0.3c0,0,0.6,0,0.9,0H14
	C14.1,15.8,12.7,14.7,12.4,14.2z"/>
<path d="M19.9,14.3c0,0-1,1.3-1.1,1.3c0,0.1-0.2,0.3,0.2,0.3s1.1-0.2,1.2-0.3s0.1-0.2-0.1-0.2s-0.7,0-1,0.1L19.9,14.3
	C19.9,14.3,20,14.2,19.9,14.3z"/>
<path d="M16.8,20.4c0,0,0.8-0.4,1.1-1c0.3-0.7,0-0.9-0.4-1c-0.5-0.1-1.3,0-1.7,0.3c-0.4,0.4-0.3,0.7-0.1,1
	C15.9,19.9,16.5,20.3,16.8,20.4z"/>
<path style="fill:#F06351;" d="M16.3,21.7c0,0-0.2,0.4-0.5,0.6c-0.2,0.2-0.6,0.4-1,0.4c-0.6,0-1.1-0.2-1.5-0.4
	c-0.2-0.1-0.4-0.3-0.5-0.4c-0.2-0.2-0.4-0.3-0.4-0.3s0.7,4.1,2.6,4.7c1.8,0.6,2.1-0.7,2.2-1.1c0-0.3,0-2.1-0.8-3.2
	C16.5,21.6,16.4,21.8,16.3,21.7z"/>
<g>
	<path d="M14.7,22.8L14.7,22.8c-1.3,0-2.3-1.4-2.3-1.4c0-0.1,0-0.2,0-0.2c0.1,0,0.2,0,0.2,0s1,1.3,2.1,1.3l0,0c0.6,0,1.1-0.3,1.6-1
		l0.1-0.2l0.1,0.2c0,0,0.4,0.8,1,0.8c0.5,0,1.1-0.4,1.6-1.3c0-0.1,0.1-0.1,0.2,0c0.1,0,0.1,0.1,0,0.2c-0.6,1-1.3,1.4-1.9,1.4
		s-0.9-0.5-1.1-0.8C15.9,22.5,15.3,22.8,14.7,22.8z"/>
</g>
<path style="fill:#F06351;" d="M26.2,19.1c0,0-2.5,2.2-5.1,5.2s-5.2,4.9-5.2,4.9c-0.2-0.5-1.6-1.5-1.6-1.5s-3.1-2.1-5.2-3.8
	c-1.2-1-2.3-2.2-3.1-3c-0.3,0-1.1-0.1-2-0.1c4.7,7,12,8.8,12,8.8c0.9-0.1,3.3-1.9,5.1-3.3c1.8-1.4,4.8-4.5,5.9-5.9
	c0.6-0.7,0.9-1.4,1.1-2C27,18.8,26.2,19.1,26.2,19.1z"/>
<g>
	<path style="fill:#111111;" d="M91.8,29.5c-0.8-1-1.2-2.5-1.2-4.4v-6.3c0-1.9,0.4-3.4,1.2-4.4c0.8-1,2.2-1.5,4.2-1.5
		c1.9,0,3.2,0.4,4,1.3c0.8,0.9,1.2,2.1,1.2,3.8v1.5h-4v-1.8c0-0.7-0.1-1.2-0.2-1.6c-0.1-0.3-0.5-0.5-1-0.5s-1,0.2-1.1,0.6
		c-0.2,0.4-0.3,0.9-0.3,1.6v8.3c0,0.7,0.1,1.2,0.3,1.6c0.2,0.4,0.5,0.6,1.1,0.6c0.5,0,0.9-0.2,1-0.6c0.2-0.4,0.2-0.9,0.2-1.6v-1.8
		h3.9v1.5c0,1.6-0.4,2.9-1.2,3.9c-0.8,0.9-2.1,1.4-4,1.4C94,31,92.6,30.5,91.8,29.5z"/>
	<path style="fill:#111111;" d="M105.8,13.1h4.5l3.3,17.6H110l-0.6-3.7h-2.6l-0.6,3.7h-3.7L105.8,13.1z M109,24.7l-0.9-6.9l-0.9,6.9
		H109z"/>
	<path style="fill:#111111;" d="M116.4,16h-2.7v-2.9h9.3V16h-2.7v14.7h-4L116.4,16L116.4,16z"/>
	<path style="fill:#111111;" d="M130.1,13.1h6.9v1.8h-4.4v5.8h3.6v1.7h-3.6v6.4h4.5v1.8h-7V13.1z"/>
	<path style="fill:#111111;" d="M139.1,13.1h1.7l5.1,11.7V13.1h2.1v17.6h-1.6l-5.1-12v12h-2.1L139.1,13.1L139.1,13.1z"/>
	<path style="fill:#111111;" d="M150.4,13.1h6.9v1.8h-4.4v5.8h3.6v1.7h-3.6v6.4h4.5v1.8h-7C150.4,30.6,150.4,13.1,150.4,13.1z"/>
	<path style="fill:#111111;" d="M159.4,13.1h3.6c1.8,0,3.1,0.4,4,1.1s1.3,1.9,1.3,3.6c0,2.3-0.7,3.6-2.2,4.1l2.5,8.8h-2.4l-2.3-8.3
		H162v8.3h-2.5V13.1H159.4z M162.8,20.7c1.1,0,1.8-0.2,2.3-0.6s0.7-1.2,0.7-2.3c0-0.7-0.1-1.3-0.2-1.7c-0.1-0.4-0.4-0.7-0.9-0.9
		c-0.4-0.2-1-0.3-1.7-0.3h-1.1v5.8H162.8z"/>
	<path style="fill:#111111;" d="M171.4,29.4c-0.7-1-1.1-2.5-1.1-4.5v-5.8c0-1.4,0.1-2.5,0.4-3.4c0.3-0.9,0.8-1.5,1.5-2
		c0.7-0.5,1.7-0.7,2.9-0.7c1.6,0,2.8,0.4,3.6,1.2c0.7,0.8,1.1,2.1,1.1,3.9v0.7h-2.3v-0.6c0-0.8-0.1-1.5-0.2-1.9
		c-0.1-0.5-0.3-0.8-0.7-1c-0.3-0.3-0.8-0.4-1.4-0.4c-0.7,0-1.2,0.2-1.5,0.5s-0.6,0.7-0.7,1.2c-0.1,0.5-0.1,1.2-0.1,2.1v6.5
		c0,1.3,0.2,2.3,0.5,2.9c0.3,0.6,1,0.9,1.9,0.9s1.6-0.3,1.9-1c0.3-0.6,0.5-1.7,0.5-3.1v-1.2h-2.3V22h4.5v8.7h-1.6l-0.2-2
		c-0.6,1.5-1.6,2.2-3.2,2.2C173.3,30.9,172.1,30.4,171.4,29.4z"/>
	<path style="fill:#111111;" d="M184.9,24.5L181,13.1h2.3l2.7,8.5l2.7-8.5h2.3l-3.8,11.4v6.2h-2.4v-6.2H184.9z"/>
</g>
</svg>
